<?xml version="1.0" encoding="utf-8"?>
<svg version="1.1" viewBox="-5 -10 256 256" style="shape-rendering: geometricprecision;" xmlns="http://www.w3.org/2000/svg" xmlns:bx="https://boxy-svg.com">
  <defs>
    <linearGradient id="color-0" gradientUnits="userSpaceOnUse" bx:pinned="true">
      <stop style="stop-color: rgb(255, 255, 255);"/>
    </linearGradient>
    <bx:export>
      <bx:file format="png" path="firetools-logo_256.png"/>
      <bx:file format="png" href="#object-0" path="Senza titolo.png"/>
    </bx:export>
  </defs>
  <g style="transform-origin: 345.106px 278.623px;" transform="matrix(1.26403, -0.709473, 0.709473, 1.26403, -210.616882, -134.405182)">
    <g>
      <g style="transform-origin: 345.106px 278.623px;" transform="matrix(1, 0, 0, 1, 155.286789, 218.770462)">
        <path d="M 115.002 12.48 C 115.299 7.323 117.949 1.142 122.321 -3.839 C 126.076 -8.117 132.333 -12.167 137.524 -14.503 C 140.533 -15.857 143.804 -16.244 146.948 -17.527 C 153.256 -20.101 157.829 -22.238 159.592 -23.05 C 162.737 -25.507 163.707 -27.981 164.013 -30.791 C 164.367 -34.044 161.099 -40.486 161.099 -40.486 C 161.099 -40.486 167.462 -35.99 169.992 -33.049 C 176.006 -26.06 189.366 -24.525 190.302 -24.846 C 193.304 -25.875 195.506 -26.536 195.995 -29.195 C 196.306 -30.885 195.016 -33.71 190.116 -39.08 C 197.124 -36.934 196.589 -37.413 199.74 -34.904 C 205.888 -30.009 215.05 -17.857 215.669 -5.926 C 215.98 0.083 215.254 19.746 215.254 19.746 C 215.254 19.746 218.014 24.769 222.322 27.254 C 226.619 29.732 230.572 30.929 232.515 30.468 C 244.84 29.067 257.379 35.05 264.022 44.05 C 264.803 45.9 265.255 49.12 264.526 50.646 C 263.794 52.181 260.857 53.856 258.752 54.381 L 240.43 54.87 L 236.173 62.64 L 240.839 70.161 L 259.549 69.665 C 261.45 70.121 264.211 71.577 265.033 72.982 C 265.871 74.414 265.655 77.721 264.987 79.709 C 259.478 88.235 249.027 94.553 238.22 95.18 C 229.97 95.211 221.558 91.983 215.818 87.18 C 211.022 82.73 205.453 80.678 198.98 81.219 L 124.813 85.169 C 119.775 85.088 114.219 83.02 110.887 79.865 C 107.555 76.711 105.186 71.272 104.832 66.247 C 104.916 61.09 107.075 55.429 110.329 52.084 C 113.587 48.734 119.157 46.44 124.276 46.248 L 124.852 46.249 C 118.514 35.971 115.099 24.366 115.002 12.48 Z" style="fill: rgb(255, 255, 255);" id="object-0"/>
      </g>
      <path d="M 398.063 268.925 C 404.835 262.154 407.405 252.674 405.512 243.875 C 405.241 242.658 403.749 242.249 402.805 243.06 L 389.261 256.601 C 388.315 257.546 387.094 257.818 385.877 257.546 L 375.583 254.839 C 374.366 254.571 373.415 253.622 373.144 252.4 L 370.437 242.107 C 370.028 240.89 370.437 239.537 371.384 238.722 L 384.925 225.181 C 385.87 224.233 385.33 222.743 384.108 222.474 C 374.361 220.441 363.658 223.827 356.889 232.49 C 353.234 237.091 351.334 242.646 351.063 248.332 C 350.795 255.919 347.679 262.959 342.264 268.236 L 288.646 318.895 C 282.692 324.45 282.555 333.79 288.378 339.617 C 294.064 345.299 303.136 345.299 308.828 339.617 L 309.096 339.345 L 359.878 285.856 C 365.024 280.442 372.202 277.326 379.649 277.056 C 386.279 276.78 392.917 274.072 398.063 268.925 Z M 295.281 332.707 C 293.388 330.813 293.388 327.833 295.281 325.935 C 297.175 324.044 300.16 324.044 302.053 325.935 C 303.947 327.833 303.947 330.949 302.053 332.707 C 300.16 334.602 297.18 334.602 295.281 332.707 Z" style="fill: rgb(27, 27, 27); transform-origin: 345.106px 282.891px;" transform="matrix(0.726201, 0.687483, -0.687483, 0.726201, 0.000011, -0.000004)"/>
    </g>
    <path d="M 298.299 267.892 C 290.611 259.796 303.892 241.503 306.615 238.393 C 306.288 239.982 307.728 250.229 316.075 250.229 C 324.424 250.229 329.331 244.504 329.331 244.504 C 329.331 244.504 325.635 252.861 327.387 257.409 C 329.139 261.957 337.79 266.274 345.866 268.247 C 348.668 268.931 357.585 268.124 357.585 268.124 C 363.052 258.912 365.854 248.674 365.891 238.406 C 363.194 244.152 359.203 249.55 353.903 254.218 C 350.95 256.82 346.153 256.822 343.2 254.218 C 340.244 251.617 340.244 247.392 343.2 244.79 L 354.553 234.79 C 369.686 221.907 369.686 201.008 354.553 188.122 C 356.893 191.534 358.338 196.249 358.338 201.456 C 358.338 206.977 354.949 211.456 350.769 211.456 C 346.592 211.456 343.2 208.47 343.2 204.789 C 343.2 202.184 344.644 199.827 346.984 198.123 C 338.63 198.123 331.848 205.584 331.848 214.79 L 331.848 221.457 C 331.848 225.137 328.459 228.124 324.279 228.124 C 320.102 228.124 316.71 225.137 316.71 221.457 C 316.71 216.025 319.12 211.116 323.015 207.569 C 329.324 202.199 329.324 193.491 323.015 188.123 C 323.022 192.495 321.126 196.863 317.341 200.2 L 305.358 210.755 C 300.677 215.191 297.79 221.333 297.79 228.122 C 297.79 232.722 295.247 236.456 292.114 236.456 C 288.984 236.456 286.438 232.722 286.438 228.122 C 286.438 220.306 289.327 213.23 294.006 208.122 C 282.305 214.088 275.084 222.334 275.084 231.455 C 275.063 244.379 279.426 257.27 288.01 268.123 L 298.299 267.892 Z" style="fill: rgb(207, 0, 0);"/>
  </g>
</svg>